{"title":"Struck.by.Lightning.2012.BRRip XViD  juggs","uid":8297270,"size":740773361,"categoryP":"video","categoryS":"movies","magnet":"?xt=urn:btih:3933a641f8c68457973bb0ca1e9db68f1afd2898&amp;dn=Struck.by.Lightning.2012.BRRip+XViD++juggs&amp;tr=udp%3A%2F%2Ftracker.openbittorrent.com%3A80&amp;tr=udp%3A%2F%2Fopen.demonii.com%3A1337&amp;tr=udp%3A%2F%2Ftracker.coppersurfer.tk%3A6969&amp;tr=udp%3A%2F%2Fexodus.desync.com%3A6969","seeders":1,"leechers":0,"uploader":"juggs99","files":3,"time":1364173742,"description":" &lt;a href=&quot;http://www.imdb.com/title/tt1791614/&quot; rel=&quot;nofollow&quot; target=&quot;_NEW&quot;&gt;http://www.imdb.com/title/tt1791614/&lt;/a&gt;\n\nFormat : AVI\nFormat/Info : Audio Video Interleave\nFile size : 699 MiB\nDuration : 1h 23mn\nOverall bit rate : 1 169 Kbps\nWriting library : VirtualDub build 32842/release\n\nVideo\nID : 0\nFormat : MPEG-4 Visual\nFormat profile : Advanced Simple@L5\nFormat settings, BVOP : 4\nFormat settings, QPel : No\nFormat settings, GMC : No warppoints\nFormat settings, Matrix : Default (H.263)\nMuxing mode : Packed bitstream\nCodec ID : XVID\nCodec ID/Hint : XviD\nDuration : 1h 23mn\nBit rate : 1 032 Kbps\nWidth : 640 pixels\nHeight : 352 pixels\nDisplay aspect ratio : 16:9\nFrame rate : 23.976 fps\nColor space : YUV\nChroma subsampling : 4:2:0\nBit depth : 8 bits\nScan type : Progressive\nCompression mode : Lossy\nBits/(Pixel*Frame) : 0.191\nStream size : 617 MiB (88%)\nWriting library : XviD 64\n\nAudio\nID : 1\nFormat : MPEG Audio\nFormat version : Version 1\nFormat profile : Layer 3\nCodec ID : 55\nCodec ID/Hint : MP3\nDuration : 1h 23mn\nBit rate mode : Constant\nBit rate : 128 Kbps\nChannel(s) : 2 channels\nSampling rate : 44.1 KHz\nCompression mode : Lossy\nStream size : 76.6 MiB (11%)\nAlignment : Split accross interleaves\nInterleave, duration : 42 ms (1.00 video frame)\nInterleave, preload duration : 500 ms\nWriting library : LAME3.99r\nEncoding settings : -m s -V 4 -q 3 -lowpass 17 -b 128\n\n\nPlot\nA young man recounts the way he blackmailed his fellow classmates into contributing to his literary m\n &lt;a href=&quot;\nhttp://www.shotpix.com/images/32819496575320954049.png&quot; rel=&quot;nofollow&quot; target=&quot;_NEW&quot;&gt;\nhttp://www.shotpix.com/images/32819496575320954049.png&lt;/a&gt; &lt;a href=&quot;\nhttp://www.shotpix.com/images/81528621618565875345.png&quot; rel=&quot;nofollow&quot; target=&quot;_NEW&quot;&gt;\nhttp://www.shotpix.com/images/81528621618565875345.png&lt;/a&gt; &lt;a href=&quot;\nhttp://www.shotpix.com/images/18589843037457908055.png&quot; rel=&quot;nofollow&quot; target=&quot;_NEW&quot;&gt;\nhttp://www.shotpix.com/images/18589843037457908055.png&lt;/a&gt;","torrent":{"xt":"urn:btih:3933a641f8c68457973bb0ca1e9db68f1afd2898","amp;dn":"Struck.by.Lightning.2012.BRRip+XViD++juggs","amp;tr":["udp%3A%2F%2Ftracker.openbittorrent.com%3A80","udp%3A%2F%2Fopen.demonii.com%3A1337","udp%3A%2F%2Ftracker.coppersurfer.tk%3A6969","udp%3A%2F%2Fexodus.desync.com%3A6969"],"infoHash":"3933a641f8c68457973bb0ca1e9db68f1afd2898","infoHashBuffer":{"type":"Buffer","data":[57,51,166,65,248,198,132,87,151,59,176,202,30,157,182,143,26,253,40,152]},"announce":[],"urlList":[]}}